<svg width="32" height="24" viewBox="0 0 32 24" fill="none" xmlns="http://www.w3.org/2000/svg">
<g id="Link &#226;&#134;&#146; SVG" opacity="0.8">
<g id="Clip path group">
<mask id="mask0_1555_7650" style="mask-type:luminance" maskUnits="userSpaceOnUse" x="0" y="0" width="31" height="23">
<g id="clip0_7_7202">
<path id="Vector" d="M30.7351 0.74292H0.4375V22.9092H30.7351V0.74292Z" fill="white"/>
</g>
</mask>
<g mask="url(#mask0_1555_7650)">
<g id="Group">
<path id="Vector_2" d="M25.6379 2.62324C28.9188 7.44985 30.5391 12.8942 29.9334 19.1618C29.9309 19.1884 29.9171 19.2126 29.8953 19.2286C27.4107 21.0541 25.0035 22.1619 22.63 22.8965C22.6116 22.9022 22.5918 22.9018 22.5735 22.8956C22.5552 22.8894 22.5393 22.8777 22.528 22.862C21.9796 22.0987 21.4815 21.2939 21.0449 20.4487C21.02 20.3989 21.0428 20.3391 21.0944 20.3194C21.8856 20.0211 22.6381 19.6635 23.3618 19.2403C23.4188 19.2068 23.4224 19.1251 23.3698 19.0858C23.2162 18.9717 23.064 18.8519 22.9184 18.732C22.8912 18.7098 22.8545 18.7055 22.8237 18.7204C18.125 20.8913 12.978 20.8913 8.22388 18.7204C8.19301 18.7065 8.15632 18.7113 8.12983 18.733C7.98456 18.853 7.83205 18.9717 7.67989 19.0858C7.62724 19.1251 7.63161 19.2068 7.68898 19.2403C8.4127 19.6556 9.16511 20.0211 9.95528 20.3209C10.0065 20.3405 10.0308 20.3989 10.0054 20.4487C9.57835 21.295 9.08014 22.0997 8.52164 22.8632C8.49731 22.894 8.45737 22.9083 8.4196 22.8965C6.05742 22.1619 3.65023 21.0541 1.16567 19.2286C1.14497 19.2126 1.13008 19.1872 1.1279 19.1607C0.621695 13.7392 1.65335 8.24994 5.4194 2.62216C5.42848 2.60725 5.44228 2.59563 5.45826 2.58872C7.31132 1.73778 9.29656 1.11174 11.3715 0.754218C11.4093 0.748403 11.447 0.765845 11.4666 0.799272C11.723 1.25345 12.0161 1.83589 12.2143 2.31186C14.4014 1.97758 16.6228 1.97758 18.8557 2.31186C19.0539 1.84605 19.3368 1.25345 19.5921 0.799272C19.6011 0.782688 19.6153 0.769403 19.6323 0.761312C19.6495 0.753221 19.6687 0.750738 19.6872 0.754218C21.7633 1.11283 23.7485 1.73887 25.6001 2.58872C25.6165 2.59563 25.6299 2.60725 25.6379 2.62324ZM13.3263 12.9312C13.3491 11.3285 12.1813 10.0023 10.7153 10.0023C9.26134 10.0023 8.10477 11.3169 8.10477 12.9312C8.10477 14.5452 9.28421 15.8598 10.7153 15.8598C12.1697 15.8598 13.3263 14.5452 13.3263 12.9312ZM22.9791 12.9312C23.0019 11.3285 21.8341 10.0023 20.3684 10.0023C18.9141 10.0023 17.7575 11.3169 17.7575 12.9312C17.7575 14.5452 18.937 15.8598 20.3684 15.8598C21.8341 15.8598 22.9791 14.5452 22.9791 12.9312Z" fill="white"/>
</g>
</g>
</g>
</g>
</svg>
