<svg width="39" height="40" viewBox="0 0 39 40" fill="none" xmlns="http://www.w3.org/2000/svg">
<g id="Link &#226;&#134;&#146; SVG" opacity="0.8">
<path id="Vector" d="M11.5975 9.7871C11.5972 10.4925 11.3127 11.169 10.8066 11.6676C10.3005 12.1662 9.61435 12.4461 8.899 12.4457C8.18365 12.4454 7.49774 12.1648 6.99217 11.6657C6.4866 11.1666 6.20276 10.4899 6.20313 9.78437C6.20349 9.07893 6.488 8.40249 6.99407 7.90389C7.50016 7.40529 8.18635 7.12538 8.9017 7.12573C9.61705 7.12608 10.3029 7.40667 10.8086 7.90577C11.3141 8.40487 11.5979 9.08159 11.5975 9.7871ZM11.6785 14.4155H6.28404V31.0671H11.6785V14.4155ZM20.2017 14.4155H14.8342V31.0671H20.1478V22.329C20.1478 17.4612 26.5807 17.009 26.5807 22.329V31.0671H31.9077V20.5202C31.9077 12.314 22.3865 12.62 20.1478 16.6499L20.2017 14.4155Z" fill="white"/>
</g>
</svg>
